<svg xmlns="http://www.w3.org/2000/svg" viewBox="0 0 230.2 68.92"><defs><style>.cls-1{fill:#f1b90c;}</style></defs><title>aegis g menu logo</title><g id="Layer_2" data-name="Layer 2"><g id="text"><path class="cls-1" d="M62,17.46S67.07,42,31.29,68.41H31C-4.83,42,.25,17.46.25,17.46L31.12,0ZM31.12,6,5.67,20.4S1.49,40.58,31,62.4h.28c29.49-21.82,25.31-42,25.31-42Z"/><path class="cls-1" d="M20.07,19.4a.59.59,0,0,1,.58.53h0a.28.28,0,0,1,0,.09.31.31,0,0,1,0,.1h0a.62.62,0,0,1-.59.53.6.6,0,0,1-.58-.63A.61.61,0,0,1,20.07,19.4Z"/><path class="cls-1" d="M18.75,29.86a.3.3,0,1,1-.28.3A.29.29,0,0,1,18.75,29.86Z"/><path class="cls-1" d="M19.29,31.93l.9,2.85L20.09,45a2.18,2.18,0,0,1-2-2.25l.12-13.44h1.09Zm-.55-1.29a.47.47,0,0,0,.46-.48.46.46,0,0,0-.45-.49.49.49,0,0,0-.46.49.47.47,0,0,0,.45.48"/><path class="cls-1" d="M43.27,43.49l2.28,3a6.07,6.07,0,0,1-4.95,2.61l0-4.45Z"/><path class="cls-1" d="M44.11,40.82l0,1.9,2.11,2.63a7,7,0,0,0,.62-2.83v-.9Z"/><path class="cls-1" d="M44.36,15.92,19,15.84a3.38,3.38,0,0,0-3.27,3.45v.92l3.18,3.63,0,5.3h.64l0,2.78.9,2.84L20.18,45.2a2.35,2.35,0,0,1-2.26-2.44l.13-13.63h.62l0-5.23-3-3.43-.21,21.69A6.58,6.58,0,0,0,21.86,49L22,38.56a2.64,2.64,0,0,1,2.55-2.68l13.7,0a2.58,2.58,0,0,1,2.49,2.69l0,5.8,2.69-1.15,2.33,3a5.35,5.35,0,0,0,.45-.77l-2.2-2.74,0-2-1.47-.43-.29-.4L42.1,25.16l.14-.3,1.85-1.47V22.21l-1.89-3.07-11.52,0-2,1-7.9,0a.77.77,0,1,1,0-.19l7.85,0,2-1,11.66,0,2,3.2v1.1L47,21.07l0-2.25A2.79,2.79,0,0,0,44.36,15.92ZM23.81,22.49l15.33,0a1.76,1.76,0,0,1,1.69,1.83l0,4.75L22,29.05l.05-4.75A1.77,1.77,0,0,1,23.81,22.49Z"/><path class="cls-1" d="M47.42,31.66h-.25v.76h.25v.84h-.25V34h.25v.84h-.25v.76h.25l0,5.78L42.54,40l-.07-14.77,4.9-3.88Zm-1-4.68a.39.39,0,0,0,0-.78.37.37,0,0,0-.36.39.38.38,0,0,0,.37.39m0-1.94a.37.37,0,0,0,.36-.39.37.37,0,1,0-.73,0,.37.37,0,0,0,.37.38m0,3.87a.39.39,0,0,0,0-.78.39.39,0,0,0,0,.78"/><path class="cls-1" d="M20.07,19.4a.59.59,0,0,1,.58.53h0a.28.28,0,0,1,0,.09.31.31,0,0,1,0,.1h0a.62.62,0,0,1-.59.53.6.6,0,0,1-.58-.63A.61.61,0,0,1,20.07,19.4Z"/><path class="cls-1" d="M18.75,29.86a.3.3,0,1,1-.28.3A.29.29,0,0,1,18.75,29.86Z"/><path class="cls-1" d="M19.29,31.93l.9,2.85L20.09,45a2.18,2.18,0,0,1-2-2.25l.12-13.44h1.09Zm-.55-1.29a.47.47,0,0,0,.46-.48.46.46,0,0,0-.45-.49.49.49,0,0,0-.46.49.47.47,0,0,0,.45.48"/><path class="cls-1" d="M43.27,43.49l2.28,3a6.07,6.07,0,0,1-4.95,2.61l0-4.45Z"/><path class="cls-1" d="M44.11,40.82l0,1.9,2.11,2.63a7,7,0,0,0,.62-2.83v-.9Z"/><path class="cls-1" d="M44.36,15.92,19,15.84a3.38,3.38,0,0,0-3.27,3.45v.92l3.18,3.63,0,5.3h.64l0,2.78.9,2.84L20.18,45.2a2.35,2.35,0,0,1-2.26-2.44l.13-13.63h.62l0-5.23-3-3.43-.21,21.69A6.58,6.58,0,0,0,21.86,49L22,38.56a2.64,2.64,0,0,1,2.55-2.68l13.7,0a2.58,2.58,0,0,1,2.49,2.69l0,5.8,2.69-1.15,2.33,3a5.35,5.35,0,0,0,.45-.77l-2.2-2.74,0-2-1.47-.43-.29-.4L42.1,25.16l.14-.3,1.85-1.47V22.21l-1.89-3.07-11.52,0-2,1-7.9,0a.77.77,0,1,1,0-.19l7.85,0,2-1,11.66,0,2,3.2v1.1L47,21.07l0-2.25A2.79,2.79,0,0,0,44.36,15.92ZM23.81,22.49l15.33,0a1.76,1.76,0,0,1,1.69,1.83l0,4.75L22,29.05l.05-4.75A1.77,1.77,0,0,1,23.81,22.49Z"/><path class="cls-1" d="M47.42,31.66h-.25v.76h.25v.84h-.25V34h.25v.84h-.25v.76h.25l0,5.78L42.54,40l-.07-14.77,4.9-3.88Zm-1-4.68a.39.39,0,0,0,0-.78.37.37,0,0,0-.36.39.38.38,0,0,0,.37.39m0-1.94a.37.37,0,0,0,.36-.39.37.37,0,1,0-.73,0,.37.37,0,0,0,.37.38m0,3.87a.39.39,0,0,0,0-.78.39.39,0,0,0,0,.78"/><path class="cls-1" d="M47.85,7.86l-.15.24.76.44.14-.25.83.49L49.29,9l.76.43.14-.25L51,9.7l-.14.25.75.43.15-.25,5.72,3.32-4.29,4L38.59,9l-1-7.09ZM42.62,6.18a.44.44,0,0,0-.18-.59.43.43,0,0,0-.59.14.43.43,0,0,0,.17.59.44.44,0,0,0,.6-.14M40.7,5.07a.42.42,0,0,0-.17-.58.42.42,0,1,0-.42.72.42.42,0,0,0,.59-.14m3.83,2.22a.45.45,0,0,0-.77-.45.45.45,0,0,0,.77.45"/><path class="cls-1" d="M74.06,63H70.22V42.5h3.84Z"/><path class="cls-1" d="M93.51,47.47V63H77.83V53.66H89.51V51.12H77.83V47.47Zm-4,12.05V56.83H81.83v2.69Z"/><path class="cls-1" d="M112.91,63H97.39V47.5h3.84V59.15h7.84V47.5h3.84Z"/><path class="cls-1" d="M132.35,47.47V63h-3.84V51.35h-7.84V63h-3.84V47.47Z"/><path class="cls-1" d="M140.34,51.31V59H152v4H136.35V47.36H152v4Z"/><path class="cls-1" d="M171.46,47.47V63h-3.84V51.35h-7.84V63h-3.84V41.94h3.84v5.53Z"/><path class="cls-1" d="M191,63H179.3v5.89h-3.85V47.47H191Zm-3.85-11.68H179.3v7.8h7.83Z"/><path class="cls-1" d="M210.64,47.47V63H195V53.66h11.68V51.12H195V47.47Zm-4,12.05V56.83H199v2.69Z"/><path class="cls-1" d="M230.2,42.32V63H214.52V47.47h11.69V42.32Zm-4,16.83v-7.8h-7.84v7.8Z"/><path class="cls-1" d="M93.85,38.64h-.51V27.56H76.5V38.64h-.72a5,5,0,0,1-5-5V14A3.28,3.28,0,0,1,74,10.66H95.6A3.28,3.28,0,0,1,98.88,14V33.6A5,5,0,0,1,93.85,38.64Zm-3-22.38H79a2.52,2.52,0,0,0-2.52,2.51v3H93.34v-3A2.51,2.51,0,0,0,90.83,16.26Z"/><path class="cls-1" d="M110.23,16v5.71h22.38v5.59H110.23v5.54h22.38a5.75,5.75,0,0,1-5.75,5.76H104.48V14.21a3.76,3.76,0,0,1,3.76-3.76h24.37V16Z"/><path class="cls-1" d="M161.39,32.88V27.34h-8.55V21.75h14.09V33.08a5.56,5.56,0,0,1-5.56,5.56H138.8V14.21a3.76,3.76,0,0,1,3.76-3.76h24.37V16H144.55V32.88Z"/><path class="cls-1" d="M187,16V32.88h8.82a5.76,5.76,0,0,1-5.76,5.76H172.63V32.88h8.83V16h-8.83V14.21a3.76,3.76,0,0,1,3.77-3.76h19.42V16Z"/><path class="cls-1" d="M207.28,16.26V21.8h22.38V33.28a5.36,5.36,0,0,1-5.36,5.36H201.74V33h22.38V27.56H201.74V14.43a3.76,3.76,0,0,1,3.76-3.77h24.16v5.6Z"/></g></g></svg>